<svg xmlns="http://www.w3.org/2000/svg" viewBox="0 0 64 64">
  <path d="M48 8c-4 0-8 2-10 5l-2 3c-2-1-5-2-8-2-10 0-18 8-18 18 0 4 1 7 3 10l-7 9c-1 1-1 3 0 4s3 1 4 0l7-5c4 4 10 6 16 6 14 0 22-10 22-22 0-8-3-16-7-20a8 8 0 0 0-6-3l3-2c1-1 1-2 0-3s-2 0-3 1l2 1zM28 16c8 0 15 6 15 14s-7 16-17 16c-5 0-10-2-13-5l10-7c1-1 1-3 0-3-1-1-3-1-3 0l-10 7c-1-2-2-5-2-8 0-8 7-14 15-14h5zm14-2c2 0 3 1 4 2 3 4 6 10 6 17 0 10-7 18-18 18l12-13c1-1 1-2 0-3s-2-1-3 0L32 46c6-1 11-6 11-13 0-3-1-5-3-7l2-3c1-2 4-4 7-4z" fill="#57606a"/>
  <circle cx="38" cy="24" r="2" fill="#57606a"/>
</svg>
